# xmcd
#
# Track frame offsets:
#	150
#	16694
#	34149
#	49307
#	65062
#	84364
#	95770
#	109199
#	125409
#	142319
#	155511
#	171909
#	189094
#	204441
#	215216
#	228636
#	242708
#	255458
#	270873
#	286362
#
# Disc length: 4014 seconds
#
# Revision: 0
# Processed by: cddbd v1.5.2PL0 Copyright (c) Steve Scherf et al.
# Submitted via: dBpowerAMP V4.0
#
DISCID=250fac14
DTITLE=Vários - Jóias sertanejas
DYEAR=2007
DGENRE=Sertanejo
TTITLE0=Mágoa de Boiadeiro   Pedro Bento e Zé da Estrada
TTITLE1=Franguinho na Panela - Lourenço e Lourival
TTITLE2=Golpe da Emoção - Camões e Camargo
TTITLE3=Relógio Quebrado - Nestor e Nestorzinho
TTITLE4=Tião Carreiro e Pardinho
TTITLE5=Rei do Gado  - pedro Bento e Zé da Estrada
TTITLE6=A enxada e a Caneta - Zico e Zeca
TTITLE7=Prato do Dia - Tião carreiro e Paraiso
TTITLE8=Nelore Valente - Dino franco e Amaraí
TTITLE9=O Poder do Criador - Goiano e Paraense
TTITLE10=Mãe Amorosa - Abel e Caim
TTITLE11=Couro de Boi - Palmeira e Biá
TTITLE12=Caboclo magoado - Camões e Camargo
TTITLE13=Onde estás Felicidade - Cascatinha e Inhana
TTITLE14=Vestido de Seda - Teodoro e Sampaio
TTITLE15=Luar do Sertão - Roberto e Carolina
TTITLE16=Pé de Cedro - Tibagi e Miltinho
TTITLE17=1900 e Antigamente - Tiu e Téu
TTITLE18=Terra Florida - Belmonte e Amaraí
TTITLE19=Velho Peão - Zico e Zeca
EXTD=Sertanejo  - Brasil
EXTT0=
EXTT1=
EXTT2=
EXTT3=
EXTT4=
EXTT5=
EXTT6=
EXTT7=
EXTT8=
EXTT9=
EXTT10=
EXTT11=
EXTT12=
EXTT13=
EXTT14=
EXTT15=
EXTT16=
EXTT17=
EXTT18=
EXTT19=
PLAYORDER=
